<svg width="200" height="41" viewBox="0 0 200 41" fill="none" xmlns="http://www.w3.org/2000/svg">
<path d="M30.0279 18.1926C28.8996 19.3278 28.3357 20.9068 28.4897 22.4999L28.4632 22.4735C28.6215 24.3483 27.9452 26.1976 26.6148 27.528C25.2844 28.8584 23.4351 29.5347 21.5603 29.3764L21.5868 29.4029C19.3168 29.1916 17.158 30.4263 16.1893 32.4901C15.2205 34.5538 15.6498 37.0034 17.2626 38.6148C18.8754 40.2261 21.3254 40.6532 23.3883 39.6826C25.4511 38.712 26.6839 36.5521 26.4706 34.2823L26.4985 34.3088C26.3403 32.4339 27.0165 30.5847 28.347 29.2543C29.6774 27.9238 31.5266 27.2476 33.4015 27.4058L33.3735 27.3794C35.8683 27.6037 38.1897 26.0825 38.9799 23.7056C39.7701 21.3286 38.8215 18.7203 36.689 17.4064C34.5564 16.0924 31.8001 16.418 30.0323 18.1926H30.0279Z" fill="#5454D4"/>
<path d="M19.1794 25.9353L19.1515 25.9088C20.7456 26.0695 22.3277 25.5057 23.4611 24.3732C24.5945 23.2407 25.1594 21.659 25 20.0647L25.0279 20.0912C24.8697 18.2164 25.5459 16.3671 26.8764 15.0367C28.2068 13.7063 30.056 13.03 31.9309 13.1883L31.9029 13.1618C34.1731 13.375 36.3332 12.1416 37.3034 10.0781C38.2736 8.01466 37.8456 5.56436 36.2333 3.95204C34.6209 2.33971 32.1706 1.91168 30.1072 2.8819C28.0437 3.85212 26.8103 6.01219 27.0235 8.28237L26.997 8.25443C27.1558 10.1294 26.4797 11.979 25.1492 13.3095C23.8186 14.6401 21.9691 15.3162 20.0941 15.1574L20.1206 15.1853C18.5264 15.0247 16.9443 15.5884 15.8109 16.721C14.6775 17.8535 14.1126 19.4351 14.272 21.0294L14.2456 21.003C14.4033 22.8777 13.7269 24.7266 12.3966 26.0569C11.0663 27.3872 9.21733 28.0636 7.34263 27.9059L7.3691 27.9324C5.09892 27.7192 2.93885 28.9526 1.96863 31.016C0.998411 33.0795 1.42644 35.5298 3.03877 37.1421C4.6511 38.7544 7.10139 39.1825 9.16485 38.2123C11.2283 37.242 12.4617 35.082 12.2485 32.8118L12.2765 32.8383C12.1182 30.9634 12.7945 29.1142 14.1249 27.7837C15.4553 26.4533 17.3046 25.7771 19.1794 25.9353Z" fill="#FF7143"/>
<path d="M9.32353 22.9839C10.452 21.8488 11.0155 20.2696 10.8603 18.6765L10.8882 18.703C10.7298 16.8276 11.4065 14.9778 12.7376 13.6473C14.0687 12.3167 15.9188 11.6409 17.7941 11.8001L17.7662 11.7736C20.0356 11.9862 22.1946 10.7529 23.1642 8.6901C24.1339 6.62729 23.7058 4.17796 22.0941 2.56623C20.4824 0.954501 18.0331 0.526496 15.9703 1.49612C13.9074 2.46575 12.6742 4.62478 12.8868 6.89417L12.8603 6.8677C13.0186 8.74254 12.3423 10.5918 11.0119 11.9222C9.68144 13.2526 7.83218 13.9289 5.95735 13.7706L5.98382 13.7971C3.48912 13.5734 1.16818 15.095 0.378454 17.4719C-0.411274 19.8489 0.537647 22.4569 2.67022 23.7705C4.8028 25.0842 7.55886 24.7585 9.32647 22.9839H9.32353Z" fill="#5454D4"/>
<path d="M54.8779 8.31616H59.2456V29.5706H54.8779V8.31616Z" fill="#19191B"/>
<path fill-rule="evenodd" clip-rule="evenodd" d="M66.461 15.1419C63.5786 16.3459 61.7066 19.169 61.7191 22.2927C61.704 24.3409 62.5131 26.3092 63.9643 27.7547C65.4156 29.2001 67.3871 30.0013 69.4353 29.978C72.559 29.978 75.3745 28.0946 76.567 25.2075C77.7595 22.3204 77.0937 18.9991 74.8804 16.7947C72.6672 14.5904 69.3433 13.9378 66.461 15.1419ZM69.3733 19.0359C71.2111 19.002 72.733 20.4553 72.7838 22.2927C72.8334 23.2036 72.4998 24.0937 71.8638 24.7476C71.2277 25.4016 70.3472 25.7597 69.4353 25.7353C67.5972 25.7354 66.1023 24.2544 66.0852 22.4164C66.0682 20.5783 67.5355 19.0698 69.3733 19.0359Z" fill="#19191B"/>
<path fill-rule="evenodd" clip-rule="evenodd" d="M94.5588 28.8367V15.0132L90.3074 15.0102V16.4955C89.2702 15.2265 87.6929 14.5243 86.0559 14.6029C82.0626 14.7288 78.8906 18.0024 78.8906 21.9977C78.8906 25.993 82.0626 29.2666 86.0559 29.3926C87.6929 29.4711 89.2702 28.769 90.3074 27.4999V28.8308C90.3804 29.7089 90.0506 30.5726 89.4107 31.1784C88.7709 31.7842 87.8904 32.0665 87.0176 31.9455C85.6371 32.0864 84.3141 31.3555 83.6985 30.1117L79.9721 32.2661C81.43 34.6415 84.0927 36.0035 86.8721 35.7955C90.7441 35.7955 94.5588 33.7279 94.5588 28.8367ZM88.2334 18.6355C89.5473 19.228 90.3689 20.5599 90.3088 21.9999C90.336 22.9298 89.9688 23.8278 89.2978 24.4721C88.6269 25.1164 87.7147 25.4471 86.7868 25.3823C85.3455 25.384 84.0479 24.5092 83.509 23.1725C82.9702 21.8357 83.2982 20.3056 84.3378 19.3072C85.3774 18.3089 86.9195 18.043 88.2334 18.6355Z" fill="#19191B"/>
<path fill-rule="evenodd" clip-rule="evenodd" d="M101.774 15.1419C98.8919 16.3459 97.0198 19.169 97.0323 22.2927C97.0172 24.3409 97.8263 26.3092 99.2776 27.7547C100.729 29.2001 102.7 30.0013 104.749 29.978C107.872 29.978 110.688 28.0946 111.88 25.2075C113.073 22.3204 112.407 18.9991 110.194 16.7947C107.98 14.5904 104.657 13.9378 101.774 15.1419ZM104.686 19.0359C106.524 19.002 108.046 20.4553 108.097 22.2927C108.147 23.2036 107.813 24.0937 107.177 24.7476C106.541 25.4016 105.66 25.7597 104.749 25.7353C102.91 25.7354 101.415 24.2544 101.398 22.4164C101.381 20.5783 102.849 19.0698 104.686 19.0359Z" fill="#19191B"/>
<path fill-rule="evenodd" clip-rule="evenodd" d="M116.119 8.69065C115.14 9.09626 114.501 10.0518 114.501 11.1118C114.516 12.5531 115.681 13.718 117.122 13.7323C118.182 13.7323 119.138 13.0939 119.543 12.1146C119.949 11.1354 119.725 10.0082 118.975 9.25872C118.226 8.50924 117.098 8.28503 116.119 8.69065ZM119.312 15.0132H114.943L114.937 29.572H119.312V15.0132Z" fill="#19191B"/>
<path fill-rule="evenodd" clip-rule="evenodd" d="M136.289 27.5823C137.595 26.1398 138.273 24.236 138.171 22.2927C138.273 20.349 137.597 18.4446 136.29 17.0016C134.984 15.5587 133.156 14.6964 131.212 14.6059C129.573 14.5165 127.981 15.1682 126.875 16.3809V15.0133H122.507V35.3941H126.875V28.2015C127.98 29.4151 129.573 30.0674 131.212 29.978C133.156 29.8871 134.983 29.0249 136.289 27.5823ZM130.281 18.9152C132.183 18.8834 133.755 20.391 133.803 22.2927C133.869 23.2377 133.528 24.166 132.867 24.8442C132.206 25.5225 131.286 25.8863 130.34 25.8441C128.437 25.8443 126.891 24.3108 126.875 22.4086C126.859 20.5064 128.379 18.947 130.281 18.9152Z" fill="#19191B"/>
<path d="M151.649 25.2029C151.649 28.5514 148.738 29.9779 145.594 29.9779C142.995 30.2134 140.515 28.8407 139.334 26.5132L143.118 24.3588C143.433 25.4423 144.463 26.1582 145.588 26.0764C146.635 26.0764 147.16 25.7559 147.16 25.175C147.16 23.572 139.997 24.4176 139.997 19.3809C139.997 16.2059 142.676 14.6059 145.704 14.6059C148.023 14.5325 150.197 15.7258 151.381 17.7206L147.654 19.7294C147.32 18.9498 146.553 18.4455 145.704 18.4485C144.947 18.4485 144.481 18.7426 144.481 19.2632C144.487 20.9235 151.649 19.8162 151.649 25.2029Z" fill="#19191B"/>
<path d="M167.603 15.0132V29.572H163.235V28.2029C162.213 29.4284 160.665 30.0891 159.074 29.9794C156.132 29.9794 153.632 27.8838 153.632 23.9499V15.0132H158V23.3102C157.926 24.0121 158.165 24.7109 158.653 25.2208C159.14 25.7307 159.828 26.0001 160.532 25.9573C162.134 25.9573 163.24 25.0264 163.24 22.9588V15.0176L167.603 15.0132Z" fill="#19191B"/>
<path d="M192.647 20.6324V29.5706H188.279V21.0104C188.279 19.5545 187.581 18.6236 186.184 18.6236C184.728 18.6236 183.912 19.6427 183.912 21.3604V29.5706H179.546V21.0104C179.546 19.5545 178.847 18.6236 177.449 18.6236C175.993 18.6236 175.178 19.6427 175.178 21.3604V29.5706H170.81V15.0118H175.178V16.3501C176.098 15.1437 177.567 14.4864 179.079 14.6045C180.6 14.5301 182.047 15.2593 182.893 16.5251C183.876 15.2018 185.471 14.4765 187.115 14.6045C190.457 14.6059 192.647 16.9927 192.647 20.6324Z" fill="#19191B"/>
<path d="M196.341 14.9235C198.131 14.9235 199.582 13.4724 199.582 11.6823C199.582 9.89229 198.131 8.44116 196.341 8.44116C194.551 8.44116 193.1 9.89229 193.1 11.6823C193.1 13.4724 194.551 14.9235 196.341 14.9235Z" fill="#19191B"/>
</svg>
