<svg width="118" height="24" viewBox="0 0 118 24" fill="none" xmlns="http://www.w3.org/2000/svg">
<path d="M37.88 19.3901C37.2852 19.4223 36.6969 19.2532 36.21 18.9101C35.7969 18.6039 35.5613 18.1139 35.58 17.6001V8.33006C35.5701 8.25053 35.5975 8.1709 35.6542 8.11424C35.7108 8.05758 35.7905 8.03021 35.87 8.04006H37.55C37.74 8.04006 37.83 8.14006 37.83 8.33006V16.8801C37.83 17.2601 38 17.4501 38.35 17.4501C38.4983 17.4562 38.6468 17.4393 38.79 17.4001C38.99 17.4001 39.1 17.4601 39.11 17.6401L39.26 18.8901C39.2746 18.9638 39.2565 19.0402 39.2105 19.0997C39.1645 19.1591 39.095 19.1957 39.02 19.2001C38.652 19.3216 38.2675 19.3857 37.88 19.3901Z" fill="#696871"/>
<path fill-rule="evenodd" clip-rule="evenodd" d="M41.33 18.32C43.0712 19.7587 45.5887 19.7587 47.33 18.32V18.31C48.836 16.7394 48.836 14.2607 47.33 12.69C45.5859 11.2592 43.0741 11.2592 41.33 12.69C39.7857 14.249 39.7857 16.7611 41.33 18.32ZM45.77 17C44.9584 17.7352 43.7216 17.7352 42.91 17C42.1769 16.1571 42.1769 14.9029 42.91 14.06C43.7216 13.3249 44.9584 13.3249 45.77 14.06C46.5031 14.9029 46.5031 16.1571 45.77 17Z" fill="#696871"/>
<path fill-rule="evenodd" clip-rule="evenodd" d="M57.99 12.1599C57.99 11.9699 57.9 11.8699 57.71 11.8699L56.05 11.8799C55.9721 11.8734 55.8954 11.9022 55.8411 11.9584C55.7868 12.0147 55.7607 12.0923 55.77 12.1699V12.3299C55.1598 11.8632 54.408 11.6197 53.64 11.6399C52.5864 11.6024 51.5623 11.9918 50.8 12.7199C49.3014 14.2703 49.3014 16.7296 50.8 18.2799C51.5588 19.0147 52.5844 19.4083 53.64 19.3699C54.3864 19.3911 55.1185 19.1624 55.72 18.7199V19.3499C55.7404 19.8133 55.5706 20.2648 55.25 20.5999C54.8991 20.9202 54.4343 21.0859 53.96 21.0599C53.5708 21.0678 53.1859 20.9784 52.84 20.7999C52.5562 20.6465 52.3389 20.3937 52.23 20.0899C52.1749 19.955 52.0457 19.8649 51.9 19.8599H50.22C49.95 19.8599 49.95 19.9499 49.95 20.1499C50.0907 20.9693 50.5651 21.6936 51.26 22.1499C52.0651 22.6718 53.0111 22.9336 53.97 22.8999C55.0316 22.9467 56.0714 22.5894 56.88 21.8999C57.6177 21.2538 58.0254 20.31 57.99 19.3299V12.1599ZM55.2 16.9999C54.8534 17.39 54.3515 17.6061 53.83 17.5899C53.3028 17.6052 52.7952 17.3897 52.44 16.9999C52.0813 16.5881 51.8919 16.0557 51.91 15.5099C51.888 14.9587 52.0817 14.4206 52.45 14.0099C52.8044 13.619 53.3126 13.4034 53.84 13.4199C54.3567 13.4029 54.8546 13.6152 55.2 13.9999C55.8838 14.883 55.8838 16.1168 55.2 16.9999Z" fill="#696871"/>
<path fill-rule="evenodd" clip-rule="evenodd" d="M60.6199 18.3201C62.364 19.7509 64.8758 19.7509 66.6199 18.3201V18.3101C68.126 16.7394 68.126 14.2607 66.6199 12.6901C64.8744 11.2631 62.3654 11.2631 60.6199 12.6901C59.1125 14.264 59.1125 16.7461 60.6199 18.3201ZM63.6299 17.55C63.0957 17.5665 62.5771 17.3684 62.1899 17.0001C61.4695 16.1524 61.4695 14.9077 62.1899 14.0601C62.5771 13.6917 63.0957 13.4936 63.6299 13.5101C64.1607 13.4963 64.6751 13.6942 65.0599 14.0601C65.7802 14.9077 65.7802 16.1524 65.0599 17.0001C64.6751 17.3659 64.1607 17.5638 63.6299 17.55Z" fill="#696871"/>
<path fill-rule="evenodd" clip-rule="evenodd" d="M69.45 10.1701C69.9967 10.6487 70.8132 10.6487 71.36 10.1701C71.6022 9.94154 71.7395 9.6232 71.7395 9.29014C71.7395 8.95707 71.6022 8.63874 71.36 8.41014C70.8085 7.94434 70.0014 7.94434 69.45 8.41014C69.2077 8.63874 69.0704 8.95707 69.0704 9.29014C69.0704 9.6232 69.2077 9.94154 69.45 10.1701ZM69.9 18.9101C70.3882 19.2505 70.9755 19.4193 71.57 19.3901C71.9608 19.3865 72.3487 19.3224 72.72 19.2001C72.795 19.1958 72.8645 19.1592 72.9105 19.0997C72.9565 19.0403 72.9745 18.9639 72.96 18.8901L72.81 17.6401C72.8 17.4601 72.69 17.4001 72.49 17.4001C72.3432 17.4387 72.1916 17.4556 72.04 17.4501C71.7 17.4501 71.53 17.2601 71.53 16.8801V12.1601C71.53 11.9701 71.44 11.8701 71.25 11.8701H69.57C69.4904 11.8603 69.4108 11.8877 69.3541 11.9443C69.2975 12.001 69.2701 12.0806 69.28 12.1601V17.6001C69.2623 18.1114 69.4934 18.5996 69.9 18.9101Z" fill="#696871"/>
<path fill-rule="evenodd" clip-rule="evenodd" d="M81.9999 12.71C81.232 11.9778 80.2001 11.5881 79.1399 11.63C78.2141 11.6099 77.3209 11.9715 76.6699 12.63C76.3266 11.9592 75.6106 11.5636 74.8599 11.63C74.4919 11.6233 74.1258 11.6843 73.7799 11.81C73.635 11.8521 73.5392 11.9896 73.5499 12.14V13.32C73.5499 13.48 73.6599 13.56 73.8799 13.56H74.2099C74.3725 13.5362 74.5369 13.5906 74.6531 13.7068C74.7693 13.8231 74.8238 13.9874 74.7999 14.15V22.35C74.7853 22.4279 74.8101 22.5079 74.8661 22.5638C74.9221 22.6198 75.0021 22.6446 75.0799 22.63H76.7599C76.9499 22.63 77.0499 22.54 77.0499 22.35V18.74C77.6572 19.1785 78.391 19.4067 79.1399 19.39C80.2021 19.4328 81.2355 19.0389 81.9999 18.3C83.467 16.7255 83.467 14.2846 81.9999 12.71ZM78.9599 17.5895C78.4387 17.5895 77.9402 17.3766 77.5799 17C77.2186 16.574 77.0296 16.0283 77.0499 15.47C77.0266 14.9114 77.216 14.3646 77.5799 13.94C77.9402 13.5635 78.4387 13.3505 78.9599 13.3505C79.481 13.3505 79.9796 13.5635 80.3399 13.94C80.7183 14.3573 80.9161 14.9074 80.8899 15.47C80.9128 16.0322 80.7155 16.5811 80.3399 17C79.9796 17.3766 79.481 17.5895 78.9599 17.5895Z" fill="#696871"/>
<path d="M87.82 19.3901C86.9223 19.427 86.0321 19.2123 85.25 18.7701C84.6142 18.3872 84.1873 17.7358 84.09 17.0001C84.09 16.8001 84.16 16.7001 84.38 16.7001H85.85C85.9925 16.7057 86.12 16.7907 86.18 16.9201C86.39 17.4601 86.94 17.7301 87.82 17.7301C88.1269 17.7442 88.4326 17.6823 88.71 17.5501C88.905 17.462 89.0357 17.2737 89.05 17.0601C89.05 16.8001 88.89 16.6201 88.57 16.5001C88.1904 16.3738 87.798 16.29 87.4 16.2501C86.9284 16.1968 86.4608 16.1133 86 16.0001C85.5518 15.8987 85.1443 15.6653 84.83 15.3301C84.4558 14.8696 84.2896 14.2744 84.3712 13.6867C84.4527 13.0989 84.7746 12.5714 85.26 12.2301C85.9807 11.771 86.8264 11.5473 87.68 11.5901C88.5063 11.5622 89.324 11.7666 90.04 12.1801C90.6243 12.5111 91.0284 13.0879 91.14 13.7501C91.14 13.9501 91.05 14.0501 90.87 14.0501H89.39C89.2624 14.0577 89.1433 13.9862 89.09 13.8701C88.9911 13.6333 88.8049 13.4435 88.57 13.3401C88.305 13.2015 88.009 13.1326 87.71 13.1401C87.4168 13.1242 87.1244 13.1827 86.86 13.3101C86.6693 13.3837 86.5426 13.5658 86.54 13.7701C86.5531 14.0509 86.7478 14.2902 87.02 14.3601C87.404 14.5049 87.8032 14.6055 88.21 14.6601C88.6776 14.7217 89.1417 14.8085 89.6 14.9201C90.0481 15.0216 90.4557 15.2549 90.77 15.5901C91.1096 15.9631 91.286 16.4564 91.26 16.9601C91.2775 17.6633 90.9244 18.324 90.33 18.7001C89.5828 19.1798 88.7073 19.4205 87.82 19.3901Z" fill="#696871"/>
<path d="M101.83 18.8901C101.841 18.9618 101.823 19.0352 101.78 19.0935C101.737 19.1518 101.672 19.1903 101.6 19.2001C101.235 19.3193 100.854 19.3834 100.47 19.3901C99.6969 19.4702 98.9384 19.1402 98.4699 18.5201C97.7635 19.1274 96.8502 19.439 95.9199 19.3901C95.0465 19.4304 94.1967 19.0999 93.5799 18.4801C92.9679 17.8312 92.6465 16.961 92.6899 16.0701V12.1601C92.6899 11.9701 92.7799 11.8701 92.9699 11.8701H94.6499C94.8399 11.8701 94.9299 11.9701 94.9299 12.1601V15.7701C94.9116 16.2199 95.0654 16.6597 95.3599 17.0001C95.6573 17.3156 96.0767 17.487 96.5099 17.4701C96.9526 17.4895 97.3847 17.3311 97.7099 17.0301C98.018 16.7127 98.1809 16.2819 98.1599 15.8401V12.1601C98.1599 11.9701 98.2499 11.8701 98.4399 11.8701H100.14C100.33 11.8701 100.42 11.9701 100.42 12.1601V16.8701C100.42 17.2601 100.59 17.4501 100.92 17.4501C101.075 17.4561 101.23 17.4393 101.38 17.4001C101.457 17.3786 101.539 17.3934 101.603 17.4402C101.667 17.487 101.707 17.5606 101.71 17.6401L101.83 18.8901Z" fill="#696871"/>
<path d="M117.72 18.8901C117.738 18.9626 117.723 19.0394 117.678 19.0994C117.634 19.1594 117.565 19.1964 117.49 19.2001C117.118 19.321 116.731 19.3851 116.34 19.3901C115.745 19.4208 115.158 19.2519 114.67 18.9101C114.242 18.6128 113.99 18.1213 114 17.6001V15.2501C114.021 14.8017 113.871 14.362 113.58 14.0201C113.296 13.7036 112.885 13.5312 112.46 13.5501C112.077 13.5357 111.708 13.6978 111.46 13.9901C111.196 14.3252 111.061 14.744 111.08 15.1701V18.8601C111.08 19.0501 110.99 19.1501 110.8 19.1501H109.11C109.03 19.16 108.951 19.1326 108.894 19.076C108.837 19.0193 108.81 18.9397 108.82 18.8601V15.2501C108.842 14.8066 108.703 14.37 108.43 14.0201C108.183 13.7226 107.817 13.5503 107.43 13.5501C107.017 13.5335 106.617 13.6935 106.33 13.9901C106.044 14.3145 105.897 14.7383 105.92 15.1701V18.8601C105.93 18.9397 105.902 19.0193 105.846 19.076C105.789 19.1326 105.709 19.16 105.63 19.1501H104C103.81 19.1501 103.72 19.0501 103.72 18.8601V14.1501C103.744 13.9875 103.689 13.8232 103.573 13.7069C103.457 13.5907 103.293 13.5363 103.13 13.5601H102.8C102.58 13.5601 102.47 13.4801 102.47 13.3201V12.1401C102.459 11.9897 102.555 11.8522 102.7 11.8101C103.046 11.6844 103.412 11.6234 103.78 11.6301C104.501 11.5687 105.193 11.9265 105.56 12.5501C106.242 11.9037 107.162 11.5704 108.1 11.6301C109.014 11.5855 109.894 11.9792 110.47 12.6901C111.14 11.9618 112.102 11.5727 113.09 11.6301C113.972 11.5888 114.832 11.9188 115.46 12.5401C116.074 13.1878 116.396 14.0588 116.35 14.9501V16.8801C116.35 17.2601 116.52 17.4501 116.84 17.4501C116.995 17.4574 117.15 17.4405 117.3 17.4001C117.507 17.4001 117.617 17.4801 117.63 17.6401L117.72 18.8901Z" fill="#696871"/>
<path fill-rule="evenodd" clip-rule="evenodd" d="M0.459927 10.57C1.97801 4.46836 7.45725 0.185303 13.7449 0.185303C20.0326 0.185303 25.5118 4.46836 27.0299 10.57H25.8299C23.8056 10.5402 21.8228 11.1452 20.1599 12.3C20.064 12.3695 19.9638 12.433 19.8599 12.49H19.7199C19.6161 12.433 19.5159 12.3695 19.4199 12.3C15.9884 9.99254 11.5014 9.99254 8.06993 12.3C7.97396 12.3695 7.87377 12.433 7.76993 12.49H7.62993C7.52609 12.433 7.42589 12.3695 7.32993 12.3C5.66706 11.1452 3.68424 10.5402 1.65993 10.57H0.459927ZM23.6699 16.84C24.2859 16.3603 25.0494 16.1093 25.8299 16.13H27.4399V12.92H25.8299C24.4552 12.9034 23.1118 13.3313 21.9999 14.14C20.7156 15.0869 18.9643 15.0869 17.6799 14.14C15.3449 12.5146 12.2449 12.5146 9.90993 14.14C8.62558 15.0869 6.87427 15.0869 5.58993 14.14C4.46433 13.321 3.10172 12.8925 1.70993 12.92H0.0499268V16.13H1.65993C2.44044 16.1093 3.20392 16.3603 3.81993 16.84C6.15087 18.4666 9.24898 18.4666 11.5799 16.84C12.1967 16.3618 12.9597 16.111 13.7399 16.13C14.5207 16.1076 15.2847 16.3588 15.8999 16.84C18.2349 18.4655 21.3349 18.4655 23.6699 16.84ZM25.8299 21.87C25.0494 21.8493 24.2859 22.1003 23.6699 22.58C21.3349 24.2055 18.2349 24.2055 15.8999 22.58C15.2847 22.0988 14.5207 21.8476 13.7399 21.87C12.9597 21.851 12.1967 22.1018 11.5799 22.58C9.24898 24.2066 6.15087 24.2066 3.81993 22.58C3.20392 22.1003 2.44044 21.8493 1.65993 21.87H0.0499268V18.66H1.70993C3.10172 18.6325 4.46433 19.061 5.58993 19.88C6.87427 20.8269 8.62558 20.8269 9.90993 19.88C12.2449 18.2546 15.3449 18.2546 17.6799 19.88C18.9643 20.8269 20.7156 20.8269 21.9999 19.88C23.1118 19.0713 24.4552 18.6434 25.8299 18.66H27.4399V21.87H25.8299Z" fill="#696871"/>
</svg>
