<svg width="128" height="30" viewBox="0 0 128 30" fill="none" xmlns="http://www.w3.org/2000/svg">
<path fill-rule="evenodd" clip-rule="evenodd" d="M75.7124 8.51577C75.1024 8.79182 74.7214 9.41096 74.75 10.0799L74.77 10.0899C74.7752 10.5125 74.9495 10.9154 75.2539 11.2085C75.5584 11.5017 75.9675 11.6606 76.39 11.6499C77.0596 11.6493 77.6615 11.2417 77.9107 10.6203C78.1599 9.9988 78.0063 9.28827 77.5226 8.82525C77.039 8.36224 76.3224 8.23973 75.7124 8.51577ZM39.72 9.25991H36.51V22.2599H39.72V9.25991ZM46 12.2199C43 12.2199 41 14.1499 41 17.3699C41 20.6599 42.93 22.5399 46 22.5399C49.07 22.5399 51 20.5899 51 17.3699C51 14.1499 49 12.2199 46 12.2199ZM47.82 17.3699C47.82 15.5999 47.13 14.5599 46.03 14.5599C44.93 14.5599 44.25 15.5599 44.25 17.3699C44.25 19.1799 44.93 20.1699 46.03 20.1699C47.13 20.1699 47.84 19.1799 47.84 17.3799L47.82 17.3699ZM55.38 22.9299H52.28L52.3 22.9399C52.48 24.7299 54.26 25.9999 57.04 26.0099C60.1 26.0099 62.18 24.5399 62.18 22.1899V12.4499H59V14.0627C58.4571 12.9757 57.3169 12.3043 56.09 12.3699C53.58 12.3699 52.09 14.2899 52.09 17.3699C52.09 20.4499 53.65 22.2399 56 22.2399C57.2579 22.3321 58.4432 21.6457 58.99 20.5109V22.2899C58.99 23.2699 58.35 23.9299 57.12 23.9299C56.3814 24.0246 55.67 23.6158 55.38 22.9299ZM59 17.3699C59 15.7999 58.28 14.8099 57.14 14.8099C56 14.8099 55.3 15.8099 55.3 17.3699C55.3 18.9299 55.99 19.8499 57.14 19.8499C58.29 19.8499 59 18.9999 59 17.3699ZM68.45 12.2199C65.45 12.2199 63.45 14.1499 63.45 17.3699H63.47C63.47 20.6599 65.39 22.5399 68.45 22.5399C71.51 22.5399 73.45 20.5899 73.45 17.3699C73.45 14.1499 71.45 12.2199 68.45 12.2199ZM70.27 17.3699C70.27 15.5999 69.57 14.5599 68.48 14.5599C67.39 14.5599 66.7 15.5599 66.7 17.3699C66.7 19.1799 67.38 20.1699 68.48 20.1699C69.58 20.1699 70.29 19.1799 70.29 17.3799L70.27 17.3699ZM74.75 12.4399H78V22.2999H74.8L74.75 12.4399ZM85.8 22.4399C88.25 22.4399 89.69 20.5799 89.69 17.3699L89.75 17.3799C89.75 14.1599 88.3 12.3099 85.78 12.3299C84.4796 12.268 83.2799 13.0278 82.78 14.2299H82.72V12.4699H79.53V25.4699H82.74V20.6099H82.8C83.3175 21.7885 84.5153 22.5192 85.8 22.4399ZM86.42 17.3699C86.42 15.8099 85.69 14.7999 84.56 14.7999C83.43 14.7999 82.72 15.7999 82.71 17.3699C82.7 18.9399 83.43 19.9299 84.56 19.9299C85.69 19.9299 86.48 18.9999 86.48 17.3799L86.42 17.3699ZM99.55 15.5199C99.53 13.4799 97.86 12.2099 95.17 12.2099L95.23 12.2199C92.52 12.2199 90.84 13.4699 90.78 15.4299C90.78 16.9399 91.79 17.9499 93.72 18.3599L95.58 18.7499C96.35 18.9099 96.65 18.9999 96.65 19.5299C96.65 20.0599 96.21 20.3599 95.27 20.3599C94.33 20.3599 93.75 19.9299 93.66 19.1999H90.55C90.68 21.2099 92.47 22.5299 95.22 22.5299C97.97 22.5299 99.82 21.1699 99.82 19.1699C99.82 17.6799 99.02 16.8799 97.02 16.4599L94.96 16.0399C94.22 15.8899 93.85 15.7299 93.85 15.2199C93.85 14.7099 94.27 14.3699 95.15 14.3699C96.03 14.3699 96.62 14.8099 96.62 15.5199H99.55ZM110.57 22.2899H107.46V20.4399H107.4C107.041 21.711 105.849 22.5629 104.53 22.4899C103.552 22.5217 102.608 22.1347 101.934 21.4261C101.259 20.7175 100.92 19.7547 101 18.7799V12.4499H104.21V18.0899C104.21 19.2499 104.82 19.8799 105.82 19.8799C106.295 19.8763 106.745 19.6673 107.053 19.3067C107.362 18.9462 107.499 18.4695 107.43 17.9999V12.4499H110.63L110.57 22.2899ZM115.24 12.4399H112.12L112.14 22.2999H115.35V16.4799C115.298 16.0706 115.425 15.6587 115.699 15.3502C115.973 15.0417 116.367 14.8666 116.78 14.8699C117.66 14.8699 118.15 15.3999 118.15 16.3999V22.2999H121.21V16.4599C121.155 16.0552 121.279 15.6465 121.55 15.3408C121.821 15.0352 122.212 14.8632 122.62 14.8699C123.53 14.8699 124 15.4299 124 16.4299V22.2999H127.23V15.6099C127.296 14.7239 126.981 13.8517 126.365 13.2121C125.748 12.5725 124.888 12.2261 124 12.2599C122.642 12.1963 121.411 13.054 121 14.3499H120.86C120.623 13.0508 119.436 12.1455 118.12 12.2599C116.819 12.2334 115.665 13.0882 115.31 14.3399H115.24V12.4399Z" fill="#696871"/>
<path fill-rule="evenodd" clip-rule="evenodd" d="M30.16 10.1099C30.1602 6.03627 27.6602 2.38014 23.8641 0.902395C20.068 -0.575349 15.754 0.428268 13 3.42987H0.52002V29.7699H26.87V17.4599C28.9617 15.589 30.1581 12.9162 30.16 10.1099ZM25.09 10.1099C25.0941 12.0603 23.9223 13.8209 22.1215 14.5701C20.3207 15.3193 18.2459 14.9094 16.8653 13.5317C15.4847 12.1539 15.0705 10.08 15.816 8.27765C16.5614 6.47532 18.3196 5.29988 20.27 5.29987C22.9281 5.29987 25.0845 7.45176 25.09 10.1099ZM5.59002 24.6999H21.8V19.8699C21.2943 19.9537 20.7827 19.9972 20.27 19.9999C14.8102 19.9944 10.3855 15.5697 10.38 10.1099C10.3844 9.56993 10.4346 9.03133 10.53 8.49987H5.59002V24.6999Z" fill="#696871"/>
</svg>
