<svg width="120" height="28" viewBox="0 0 120 28" fill="none" xmlns="http://www.w3.org/2000/svg">
<path fill-rule="evenodd" clip-rule="evenodd" d="M71.3496 7.38148C70.7831 7.63254 70.4239 8.20052 70.44 8.81998V8.83998C70.4362 9.24689 70.6025 9.63691 70.8987 9.91598C71.1948 10.1951 71.594 10.3379 72 10.31C72.6195 10.2976 73.1704 9.91279 73.3952 9.33534C73.62 8.75789 73.4743 8.10187 73.0262 7.67387C72.5781 7.24587 71.9161 7.13042 71.3496 7.38148ZM37.87 8.06998H34.87V20.2H37.87V8.06998ZM43.74 10.83C40.9 10.83 39.06 12.62 39.06 15.62C39.06 18.67 40.86 20.42 43.74 20.42C46.62 20.42 48.42 18.62 48.42 15.62C48.42 12.62 46.58 10.83 43.74 10.83ZM45.41 15.62C45.41 13.97 44.76 13 43.74 13C42.72 13 42.08 14 42.08 15.62C42.08 17.24 42.71 18.22 43.74 18.22C44.77 18.22 45.41 17.3 45.41 15.63V15.62ZM52.43 20.79H49.55V20.8C49.72 22.46 51.37 23.65 54.02 23.65C56.87 23.65 58.8 22.29 58.8 20.1V11H55.8V12.67C55.3375 11.5647 54.2372 10.863 53.04 10.91C50.74 10.91 49.36 12.72 49.36 15.59C49.36 18.46 50.81 20.13 53 20.13C54.1597 20.193 55.241 19.5434 55.73 18.49H55.79V20.17C55.79 21.07 55.19 21.69 54.05 21.69C53.3704 21.7814 52.7115 21.4153 52.43 20.79ZM55.8 15.61C55.8 14.15 55.13 13.23 54.07 13.23C53.01 13.23 52.36 14.14 52.36 15.61C52.36 17.08 53 17.91 54.07 17.91C55.14 17.91 55.8 17.1 55.8 15.62V15.61ZM64.61 10.82C61.77 10.82 59.93 12.61 59.93 15.61V15.62C59.93 18.67 61.72 20.41 64.61 20.41C67.5 20.41 69.3 18.61 69.3 15.61C69.3 12.61 67.45 10.82 64.61 10.82ZM66.28 15.61C66.28 13.96 65.63 12.99 64.61 12.99C63.59 12.99 63 14 63 15.63C63 17.26 63.63 18.23 64.65 18.23C65.67 18.23 66.28 17.3 66.28 15.63V15.61ZM70.44 11.02H73.44V20.2H70.44V11.02ZM80.72 20.32C83 20.32 84.33 18.61 84.33 15.61L84.37 15.63C84.37 12.63 83 10.91 80.7 10.87C79.4932 10.8161 78.3818 11.5237 77.92 12.64H77.86V11H74.86V23.14H77.86V18.62H77.92C78.4043 19.7179 79.5224 20.3968 80.72 20.32ZM81.33 15.61C81.33 14.15 80.66 13.22 79.61 13.22C78.56 13.22 77.89 14.16 77.88 15.61C77.87 17.06 78.56 17.99 79.61 17.99C80.66 17.99 81.33 17.08 81.33 15.63V15.61ZM93.55 13.88C93.48 11.99 91.97 10.81 89.48 10.81V10.83C87 10.83 85.39 12 85.37 13.8C85.37 15.2 86.31 16.15 88.1 16.52L89.83 16.89C90.55 17.04 90.83 17.14 90.83 17.62C90.83 18.1 90.43 18.39 89.55 18.39C88.67 18.39 88.13 17.99 88.04 17.31H85.15C85.28 19.18 86.95 20.4 89.5 20.4C92.05 20.4 93.78 19.18 93.78 17.28C93.78 15.89 93 15.15 91.17 14.76L89.25 14.37C88.58 14.23 88.25 14.08 88.25 13.61C88.25 13.14 88.62 12.82 89.45 12.82C90.28 12.82 90.82 13.23 90.82 13.88H93.55ZM103.79 20.18H100.9V18.47H100.84C100.513 19.6529 99.4055 20.4479 98.18 20.38C97.2578 20.4324 96.3581 20.0825 95.7137 19.4208C95.0692 18.7591 94.7432 17.8505 94.82 16.93V11H97.82V16.24C97.82 17.33 98.38 17.91 99.31 17.91C99.7512 17.9109 100.171 17.7213 100.463 17.3898C100.754 17.0584 100.888 16.6174 100.83 16.18V11H103.83L103.79 20.18ZM108.14 11H105.24L105.19 20.2H108.19V14.79C108.144 14.4095 108.264 14.0277 108.518 13.741C108.772 13.4543 109.137 13.2901 109.52 13.29C110.34 13.29 110.79 13.79 110.79 14.71V20.2H113.64V14.77C113.591 14.3942 113.707 14.0155 113.958 13.7317C114.209 13.4479 114.571 13.2868 114.95 13.29C115.79 13.29 116.24 13.75 116.24 14.75V20.2H119.24V13.95C119.3 13.1266 119.008 12.3165 118.435 11.7214C117.863 11.1263 117.065 10.8023 116.24 10.83C114.954 10.7747 113.793 11.5977 113.42 12.83H113.36C113.161 11.6008 112.051 10.7306 110.81 10.83C109.6 10.8076 108.527 11.6049 108.2 12.77H108.14V11Z" fill="#696871"/>
<path fill-rule="evenodd" clip-rule="evenodd" d="M24.48 5.3999C25.2975 6.37183 25.9711 7.45626 26.48 8.6199C27.2213 10.3165 27.6026 12.1484 27.6 13.9999C27.5945 21.4733 21.5434 27.5334 14.07 27.5499C12.3311 27.5489 10.609 27.2093 9 26.5499C7.85235 26.0939 6.775 25.4778 5.8 24.7199C1.65298 21.5595 -0.308978 16.2973 0.756714 11.1933C1.82241 6.08937 5.72609 2.05194 10.7913 0.814978C15.8565 -0.421984 21.1817 1.36166 24.48 5.3999ZM18.58 4.1899C17.1642 3.53104 15.6215 3.18973 14.06 3.1899L14.07 3.1699C10.367 3.16714 6.92082 5.06168 4.93897 8.18964C2.95711 11.3176 2.71595 15.2428 4.3 18.5899C4.75169 18.1154 5.03004 17.5023 5.09 16.8499C5.45371 14.3373 7.42741 12.3636 9.94 11.9999C11.3576 11.8713 12.4897 10.7643 12.65 9.3499C13.0137 6.83731 14.9874 4.86361 17.5 4.4999C17.8718 4.44325 18.2348 4.33907 18.58 4.1899ZM5.79 20.9999C5.83 20.9632 5.87 20.9277 5.91001 20.8921L5.91007 20.8921C5.99005 20.821 6.07002 20.7499 6.15 20.6699C7.03965 19.8074 7.61071 18.6688 7.77 17.4399C7.83458 16.7491 8.143 16.1039 8.64 15.6199C9.11825 15.1221 9.76197 14.8162 10.45 14.7599C12.9626 14.3962 14.9363 12.4225 15.3 9.9099C15.3433 9.18741 15.6533 8.50674 16.17 7.9999C16.66 7.51175 17.3099 7.217 18 7.1699C19.1239 7.01526 20.1721 6.51561 21 5.7399C21.9426 6.52197 22.7413 7.46279 23.36 8.5199C23.322 8.57125 23.2784 8.61821 23.23 8.6599C22.7527 9.16209 22.1098 9.47466 21.42 9.5399C18.9043 9.89734 16.9274 11.8742 16.57 14.3899C16.4247 15.8092 15.2999 16.9299 13.88 17.0699C11.3604 17.4308 9.37641 19.4026 9 21.9199C8.94618 22.4086 8.77834 22.8779 8.51 23.2899C7.484 22.6807 6.56508 21.9071 5.79 20.9999ZM11.06 24.4399C12.0354 24.7196 13.0453 24.861 14.06 24.8599V24.8099C17.4091 24.7969 20.5634 23.2337 22.6021 20.5767C24.6409 17.9196 25.3343 14.4682 24.48 11.2299C23.7208 11.7667 22.842 12.11 21.92 12.2299C20.504 12.3744 19.3845 13.4939 19.24 14.9099C18.8752 17.4256 16.8965 19.4002 14.38 19.7599C12.964 19.9044 11.8445 21.0239 11.7 22.4399C11.6106 23.1401 11.3937 23.8179 11.06 24.4399Z" fill="#696871"/>
</svg>
